<svg version="1.1" preserveAspectRatio="none" xmlns="http://www.w3.org/2000/svg" width="500" height="500" viewBox="0 0 500 500"><rect width="100%" height="100%" fill="#F5F5F5" fill-opacity="1"/><svg viewBox="62.8841 157.9999 380.5805 183" width="333" height="160.12118329762035" x="83.5px" y="169.9394px" xmlns="http://www.w3.org/2000/svg" xmlns:xlink="http://www.w3.org/1999/xlink" preserveAspectRatio="none"><defs></defs><style>.companyName {fill:#08376B;fill-opacity:1;}.icon1 {fill:#35C0ED;fill-opacity:1;}.icon2 {fill:#9AEBA6;fill-opacity:1;}.icon3 {fill:#2F90B0;fill-opacity:1;}.icon3-str {stroke:#2F90B0;stroke-opacity:1;}.shapeStroke-str {stroke:#08376B;stroke-opacity:1;}.text {fill:#08376B;fill-opacity:1;}</style><g opacity="1" transform="rotate(0 95.324 172.9999)">
<svg width="110.4541" height="120" x="95.324" y="172.9999" version="1.1" preserveAspectRatio="none" viewBox="10.533000946044922 7.23900032043457 79.91999816894531 86.8270034790039">
  <g transform="matrix(1 0 0 1 0 0)" class="icon1"><path d="M81.702,22.52c-2.616-1.533-18.196-10.483-22.328-12.891c-2.609-1.52-5.642-2.39-8.88-2.39c-3.291,0-6.371,0.899-9.01,2.467  c-4.069,2.416-19.505,11.269-22.101,12.767c-5.29,3.053-8.85,8.768-8.85,15.312c0,5.075,0,20.664,0,25.739  c0,6.472,3.479,12.132,8.67,15.209c2.636,1.563,18.276,10.534,22.407,12.941c2.609,1.521,5.645,2.392,8.883,2.392  c3.242,0,6.281-0.873,8.893-2.398c4.126-2.407,19.589-11.322,22.175-12.804c5.312-3.047,8.892-8.775,8.892-15.34  c0-5.077,0-20.673,0-25.75C90.453,31.27,86.938,25.585,81.702,22.52z M70.69,57.147c0,3.316-1.808,6.21-4.492,7.75  c-1.307,0.748-9.118,5.252-11.202,6.47c-1.32,0.77-2.854,1.21-4.493,1.21c-1.637,0-3.17-0.439-4.488-1.207  c-2.087-1.218-9.989-5.749-11.321-6.539c-2.622-1.555-4.38-4.413-4.38-7.684c0-2.563,0-10.439,0-13.004  c0-3.308,1.799-6.194,4.471-7.736c1.312-0.757,9.11-5.229,11.166-6.45c1.333-0.792,2.89-1.246,4.553-1.246  c1.635,0,3.167,0.439,4.485,1.207c2.087,1.217,9.959,5.737,11.281,6.513c2.645,1.549,4.421,4.421,4.421,7.707  C70.69,46.703,70.69,54.582,70.69,57.147z"></path></g>
</svg>
</g><g opacity="1" transform="rotate(0 268.7781 172.9999)">
<svg width="142.2466" height="120" x="268.7781" y="172.9999" version="1.1" preserveAspectRatio="none" viewBox="1.2 -28.48 84.11999999999999 70.96000000000001">
  <g transform="matrix(1 0 0 1 0 0)" class="companyName"><path id="id-D6z1nYkh9" d="M5.52-28L1.20-28L12.92 0L15.32 0L26.68-28L24.60-28L15.28-4.96L15.12-4.96L5.52-28Z M35.76-20L32.36-20L32.36 0L35.76 0L35.76-20ZM31.88-26.32L31.88-26.32Q31.88-25.44 32.52-24.80Q33.16-24.16 34.04-24.16L34.04-24.16Q34.92-24.16 35.56-24.80Q36.20-25.44 36.20-26.32L36.20-26.32Q36.20-27.20 35.56-27.84Q34.92-28.48 34.04-28.48L34.04-28.48Q33.16-28.48 32.52-27.84Q31.88-27.20 31.88-26.32Z M46.80-20L43.40-20L43.40 0L46.80 0L46.80-12.08Q46.80-13.72 47.18-14.86Q47.56-16 48.16-16.72Q48.76-17.44 49.48-17.76Q50.20-18.08 50.88-18.08L50.88-18.08Q51.80-18.08 52.58-17.48Q53.36-16.88 53.72-16.36L53.72-16.36L55.08-18.84Q54.72-19.32 54.22-19.64Q53.72-19.96 53.22-20.14Q52.72-20.32 52.30-20.38Q51.88-20.44 51.68-20.44L51.68-20.44Q50-20.44 48.88-19.52Q47.76-18.60 47.04-16.80L47.04-16.80L46.80-16.80L46.80-20Z M66.04-20.44L66.04-20.44Q68.96-20.44 70.56-19.62Q72.16-18.80 72.90-17.48Q73.64-16.16 73.76-14.44Q73.88-12.72 73.88-10.92L73.88-10.92L73.88 0L70.64 0L70.64-1.96Q69.48-0.84 67.68-0.18Q65.88 0.48 64.08 0.48L64.08 0.48Q62.36 0.48 61.04-0.12Q59.72-0.72 58.84-1.68Q57.96-2.64 57.52-3.84Q57.08-5.04 57.08-6.28L57.08-6.28Q57.08-7.56 57.56-8.84Q58.04-10.12 59.00-11.14Q59.96-12.16 61.36-12.80Q62.76-13.44 64.56-13.44L64.56-13.44Q66.36-13.44 67.98-12.74Q69.60-12.04 70.64-10.76L70.64-10.76L70.64-12.48Q70.64-15.76 69.66-17.36Q68.68-18.96 66.08-18.96L66.08-18.96Q64.96-18.96 64.12-18.68Q63.28-18.40 62.62-17.90Q61.96-17.40 61.40-16.66Q60.84-15.92 60.28-15L60.28-15L58.20-17.08Q58.76-17.68 59.38-18.28Q60.00-18.88 60.90-19.36Q61.80-19.84 63.04-20.14Q64.28-20.44 66.04-20.44ZM70.64-4.84L70.64-7.92Q70.44-8.40 70.06-9.04Q69.68-9.68 69.08-10.28Q68.48-10.88 67.64-11.30Q66.80-11.72 65.64-11.72L65.64-11.72Q64.48-11.72 63.52-11.26Q62.56-10.80 61.90-10.06Q61.24-9.32 60.88-8.32Q60.52-7.32 60.52-6.24L60.52-6.24Q60.52-4.96 60.98-4.02Q61.44-3.08 62.16-2.42Q62.88-1.76 63.76-1.44Q64.64-1.12 65.44-1.12L65.44-1.12Q66.20-1.12 66.98-1.40Q67.76-1.68 68.46-2.18Q69.16-2.68 69.72-3.36Q70.28-4.04 70.64-4.84L70.64-4.84Z M84.48 0L84.48-28L81.08-28L81.08 0L84.48 0Z M5.52 14L1.20 14L12.92 42L15.32 42L26.68 14L24.60 14L15.28 37.04L15.12 37.04L5.52 14Z M35.76 22L32.36 22L32.36 42L35.76 42L35.76 22ZM31.88 15.68L31.88 15.68Q31.88 16.56 32.52 17.20Q33.16 17.84 34.04 17.84L34.04 17.84Q34.92 17.84 35.56 17.20Q36.20 16.56 36.20 15.68L36.20 15.68Q36.20 14.80 35.56 14.16Q34.92 13.52 34.04 13.52L34.04 13.52Q33.16 13.52 32.52 14.16Q31.88 14.80 31.88 15.68Z M43.40 42L43.40 14L46.80 14L46.80 25.28L46.96 25.28Q47.36 24.24 48.02 23.54Q48.68 22.84 49.52 22.40Q50.36 21.96 51.30 21.76Q52.24 21.56 53.20 21.56L53.20 21.56Q55.20 21.56 56.88 22.30Q58.56 23.04 59.78 24.40Q61 25.76 61.68 27.68Q62.36 29.60 62.36 31.96L62.36 31.96Q62.36 34.36 61.68 36.30Q61 38.24 59.78 39.62Q58.56 41 56.88 41.74Q55.20 42.48 53.20 42.48L53.20 42.48Q48.44 42.48 46.96 38.76L46.96 38.76L46.80 38.76L46.80 42L43.40 42ZM46.80 30.52L46.80 34Q46.80 35.32 47.22 36.50Q47.64 37.68 48.40 38.54Q49.16 39.40 50.18 39.90Q51.20 40.40 52.36 40.40L52.36 40.40Q53.60 40.40 54.74 39.94Q55.88 39.48 56.72 38.48Q57.56 37.48 58.06 35.88Q58.56 34.28 58.56 32.04L58.56 32.04Q58.56 29.76 58.06 28.16Q57.56 26.56 56.70 25.54Q55.84 24.52 54.72 24.06Q53.60 23.60 52.36 23.60L52.36 23.60Q51.24 23.60 50.24 24.06Q49.24 24.52 48.48 25.42Q47.72 26.32 47.26 27.60Q46.80 28.88 46.80 30.52L46.80 30.52Z M70.12 32.88L85.32 32.88L85.32 32.04Q85.32 29.36 84.56 27.40Q83.80 25.44 82.50 24.16Q81.20 22.88 79.48 22.24Q77.76 21.60 75.84 21.60L75.84 21.60Q73.80 21.60 72.08 22.30Q70.36 23 69.08 24.34Q67.80 25.68 67.08 27.58Q66.36 29.48 66.36 31.88L66.36 31.88Q66.36 33.88 66.98 35.78Q67.60 37.68 68.86 39.18Q70.12 40.68 72.06 41.58Q74 42.48 76.64 42.48L76.64 42.48Q79.20 42.48 81.36 41.58Q83.52 40.68 85.12 39L85.12 39L83.84 37.72Q83 38.44 82.26 39.04Q81.52 39.64 80.76 40.04Q80 40.44 79.18 40.66Q78.36 40.88 77.36 40.88L77.36 40.88Q76.24 40.88 74.98 40.54Q73.72 40.20 72.64 39.32Q71.56 38.44 70.84 36.88Q70.12 35.32 70.12 32.88L70.12 32.88ZM81.84 31.28L70.12 31.28Q70.12 29.68 70.46 28.18Q70.80 26.68 71.50 25.52Q72.20 24.36 73.28 23.66Q74.36 22.96 75.84 22.96L75.84 22.96Q78.68 22.96 80.26 25.18Q81.84 27.40 81.84 31.28L81.84 31.28Z"/></g>
</svg>
</g><g opacity="1" transform="rotate(0 235.7781 157.9999)">
<svg width="3" height="150" x="235.7781" y="157.9999" version="1.1" preserveAspectRatio="none" viewBox="0 0 3 150">
  <defs><rect x="0" y="0" width="3" height="150" rx="0px" ry="0px" id="id-tBXipXk0b1707383286493"></rect></defs><use class="companyName shapeStroke-str" style="stroke-width:0;" xlink:href="#id-tBXipXk0b1707383286493"></use>
</svg>
</g><g opacity="1" transform="rotate(0 62.8841 322.9999)">
<svg width="380.5805" height="18" x="62.8841" y="322.9999" version="1.1" preserveAspectRatio="none" viewBox="4.56 -29.88 800.2400000000001 37.84">
  <g transform="matrix(1 0 0 1 0 0)" class="text"><path id="id-D-YM9nyY437" d="M4.56 0L4.56-28L7.52-28L7.52 0L4.56 0Z M34-21.04L36.72-21.04L36.72-2.56Q36.72 2.80 34.10 5.38Q31.48 7.96 26.20 7.96L26.20 7.96Q23.28 7.96 20.66 7.10Q18.04 6.24 16.40 4.72L16.40 4.72L17.84 2.56Q19.36 3.92 21.54 4.68Q23.72 5.44 26.12 5.44L26.12 5.44Q30.12 5.44 32 3.58Q33.88 1.72 33.88-2.20L33.88-2.20L33.88-4.88Q32.56-2.88 30.42-1.84Q28.28-0.80 25.68-0.80L25.68-0.80Q22.72-0.80 20.30-2.10Q17.88-3.40 16.50-5.74Q15.12-8.08 15.12-11.04L15.12-11.04Q15.12-14 16.50-16.32Q17.88-18.64 20.28-19.92Q22.68-21.20 25.68-21.20L25.68-21.20Q28.36-21.20 30.52-20.12Q32.68-19.04 34-17L34-17L34-21.04ZM25.96-3.32Q28.24-3.32 30.08-4.30Q31.92-5.28 32.94-7.04Q33.96-8.80 33.96-11.04L33.96-11.04Q33.96-13.28 32.94-15.02Q31.92-16.76 30.10-17.74Q28.28-18.72 25.96-18.72L25.96-18.72Q23.68-18.72 21.86-17.76Q20.04-16.80 19.02-15.04Q18-13.28 18-11.04L18-11.04Q18-8.80 19.02-7.04Q20.04-5.28 21.86-4.30Q23.68-3.32 25.96-3.32L25.96-3.32Z M56.60-21.20Q60.56-21.20 62.90-18.90Q65.24-16.60 65.24-12.20L65.24-12.20L65.24 0L62.40 0L62.40-11.92Q62.40-15.20 60.76-16.92Q59.12-18.64 56.08-18.64L56.08-18.64Q52.68-18.64 50.70-16.62Q48.72-14.60 48.72-11.04L48.72-11.04L48.72 0L45.88 0L45.88-21.04L48.60-21.04L48.60-17.16Q49.76-19.08 51.82-20.14Q53.88-21.20 56.60-21.20L56.60-21.20Z M74.16 0L74.16-21.04L77-21.04L77 0L74.16 0ZM75.60-25.64Q74.72-25.64 74.12-26.24Q73.52-26.84 73.52-27.68L73.52-27.68Q73.52-28.48 74.12-29.08Q74.72-29.68 75.60-29.68L75.60-29.68Q76.48-29.68 77.08-29.10Q77.68-28.52 77.68-27.72L77.68-27.72Q77.68-26.84 77.08-26.24Q76.48-25.64 75.60-25.64L75.60-25.64Z M96.20-3.32L97.20-1.28Q96.40-0.56 95.22-0.18Q94.04 0.20 92.76 0.20L92.76 0.20Q89.80 0.20 88.20-1.40Q86.60-3 86.60-5.92L86.60-5.92L86.60-18.64L82.84-18.64L82.84-21.04L86.60-21.04L86.60-25.64L89.44-25.64L89.44-21.04L95.84-21.04L95.84-18.64L89.44-18.64L89.44-6.08Q89.44-4.20 90.38-3.22Q91.32-2.24 93.08-2.24L93.08-2.24Q93.96-2.24 94.78-2.52Q95.60-2.80 96.20-3.32L96.20-3.32Z M103.56 0L103.56-21.04L106.40-21.04L106.40 0L103.56 0ZM105.00-25.64Q104.12-25.64 103.52-26.24Q102.92-26.84 102.92-27.68L102.92-27.68Q102.92-28.48 103.52-29.08Q104.12-29.68 105.00-29.68L105.00-29.68Q105.88-29.68 106.48-29.10Q107.08-28.52 107.08-27.72L107.08-27.72Q107.08-26.84 106.48-26.24Q105.88-25.64 105.00-25.64L105.00-25.64Z M126.24-21.20Q130.20-21.20 132.54-18.90Q134.88-16.60 134.88-12.20L134.88-12.20L134.88 0L132.04 0L132.04-11.92Q132.04-15.20 130.40-16.92Q128.76-18.64 125.72-18.64L125.72-18.64Q122.32-18.64 120.34-16.62Q118.36-14.60 118.36-11.04L118.36-11.04L118.36 0L115.52 0L115.52-21.04L118.24-21.04L118.24-17.16Q119.40-19.08 121.46-20.14Q123.52-21.20 126.24-21.20L126.24-21.20Z M160.64-21.04L163.36-21.04L163.36-2.56Q163.36 2.80 160.74 5.38Q158.12 7.96 152.84 7.96L152.84 7.96Q149.92 7.96 147.30 7.10Q144.68 6.24 143.04 4.72L143.04 4.72L144.48 2.56Q146.00 3.92 148.18 4.68Q150.36 5.44 152.76 5.44L152.76 5.44Q156.76 5.44 158.64 3.58Q160.52 1.72 160.52-2.20L160.52-2.20L160.52-4.88Q159.20-2.88 157.06-1.84Q154.92-0.80 152.32-0.80L152.32-0.80Q149.36-0.80 146.94-2.10Q144.52-3.40 143.14-5.74Q141.76-8.08 141.76-11.04L141.76-11.04Q141.76-14 143.14-16.32Q144.52-18.64 146.92-19.92Q149.32-21.20 152.32-21.20L152.32-21.20Q155.00-21.20 157.16-20.12Q159.32-19.04 160.64-17L160.64-17L160.64-21.04ZM152.60-3.32Q154.88-3.32 156.72-4.30Q158.56-5.28 159.58-7.04Q160.60-8.80 160.60-11.04L160.60-11.04Q160.60-13.28 159.58-15.02Q158.56-16.76 156.74-17.74Q154.92-18.72 152.60-18.72L152.60-18.72Q150.32-18.72 148.50-17.76Q146.68-16.80 145.66-15.04Q144.64-13.28 144.64-11.04L144.64-11.04Q144.64-8.80 145.66-7.04Q146.68-5.28 148.50-4.30Q150.32-3.32 152.60-3.32L152.60-3.32Z M184.80 0L184.80-28L187.76-28L187.76 0L184.80 0Z M208.20-21.20Q212.16-21.20 214.50-18.90Q216.84-16.60 216.84-12.20L216.84-12.20L216.84 0L214.00 0L214.00-11.92Q214.00-15.20 212.36-16.92Q210.72-18.64 207.68-18.64L207.68-18.64Q204.28-18.64 202.30-16.62Q200.32-14.60 200.32-11.04L200.32-11.04L200.32 0L197.48 0L197.48-21.04L200.20-21.04L200.20-17.16Q201.36-19.08 203.42-20.14Q205.48-21.20 208.20-21.20L208.20-21.20Z M232.72-27.48Q230.88-27.48 229.94-26.48Q229.00-25.48 229.00-23.52L229.00-23.52L229.00-21.04L235.48-21.04L235.48-18.64L229.08-18.64L229.08 0L226.24 0L226.24-18.64L222.48-18.64L222.48-21.04L226.24-21.04L226.24-23.64Q226.24-26.52 227.90-28.20Q229.56-29.88 232.60-29.88L232.60-29.88Q233.80-29.88 234.92-29.54Q236.04-29.20 236.80-28.56L236.80-28.56L235.84-26.44Q234.60-27.48 232.72-27.48L232.72-27.48Z M240.52 0L240.52-29.68L243.36-29.68L243.36 0L240.52 0Z M268.60-21.04L271.44-21.04L271.44 0L268.72 0L268.72-3.84Q267.60-1.92 265.64-0.86Q263.68 0.20 261.16 0.20L261.16 0.20Q257.04 0.20 254.66-2.10Q252.28-4.40 252.28-8.84L252.28-8.84L252.28-21.04L255.12-21.04L255.12-9.12Q255.12-5.80 256.76-4.08Q258.40-2.36 261.44-2.36L261.44-2.36Q264.76-2.36 266.68-4.38Q268.60-6.40 268.60-10L268.60-10L268.60-21.04Z M298.96-10.52L298.92-9.64L281.32-9.64Q281.56-6.36 283.84-4.34Q286.12-2.32 289.60-2.32L289.60-2.32Q291.56-2.32 293.20-3.02Q294.84-3.72 296.04-5.08L296.04-5.08L297.64-3.24Q296.24-1.56 294.14-0.68Q292.04 0.20 289.52 0.20L289.52 0.20Q286.28 0.20 283.78-1.18Q281.28-2.56 279.88-5Q278.48-7.44 278.48-10.52L278.48-10.52Q278.48-13.60 279.82-16.04Q281.16-18.48 283.50-19.84Q285.84-21.20 288.76-21.20L288.76-21.20Q291.68-21.20 294.00-19.84Q296.32-18.48 297.64-16.06Q298.96-13.64 298.96-10.52L298.96-10.52ZM288.76-18.76Q285.72-18.76 283.66-16.82Q281.60-14.88 281.32-11.76L281.32-11.76L296.24-11.76Q295.96-14.88 293.90-16.82Q291.84-18.76 288.76-18.76L288.76-18.76Z M316.68-21.20Q320.64-21.20 322.98-18.90Q325.32-16.60 325.32-12.20L325.32-12.20L325.32 0L322.48 0L322.48-11.92Q322.48-15.20 320.84-16.92Q319.20-18.64 316.16-18.64L316.16-18.64Q312.76-18.64 310.78-16.62Q308.80-14.60 308.80-11.04L308.80-11.04L308.80 0L305.96 0L305.96-21.04L308.68-21.04L308.68-17.16Q309.84-19.08 311.90-20.14Q313.96-21.20 316.68-21.20L316.68-21.20Z M343.04 0.20Q339.92 0.20 337.46-1.16Q335.00-2.52 333.60-4.98Q332.20-7.44 332.20-10.52L332.20-10.52Q332.20-13.60 333.60-16.04Q335.00-18.48 337.46-19.84Q339.92-21.20 343.04-21.20L343.04-21.20Q345.76-21.20 347.90-20.14Q350.04-19.08 351.28-17.04L351.28-17.04L349.16-15.60Q348.12-17.16 346.52-17.94Q344.92-18.72 343.04-18.72L343.04-18.72Q340.76-18.72 338.94-17.70Q337.12-16.68 336.10-14.80Q335.08-12.92 335.08-10.52L335.08-10.52Q335.08-8.08 336.10-6.22Q337.12-4.36 338.94-3.34Q340.76-2.32 343.04-2.32L343.04-2.32Q344.92-2.32 346.52-3.08Q348.12-3.84 349.16-5.40L349.16-5.40L351.28-3.96Q350.04-1.92 347.88-0.86Q345.72 0.20 343.04 0.20L343.04 0.20Z M376.04-10.52L376.00-9.64L358.40-9.64Q358.64-6.36 360.92-4.34Q363.20-2.32 366.68-2.32L366.68-2.32Q368.64-2.32 370.28-3.02Q371.92-3.72 373.12-5.08L373.12-5.08L374.72-3.24Q373.32-1.56 371.22-0.68Q369.12 0.20 366.60 0.20L366.60 0.20Q363.36 0.20 360.86-1.18Q358.36-2.56 356.96-5Q355.56-7.44 355.56-10.52L355.56-10.52Q355.56-13.60 356.90-16.04Q358.24-18.48 360.58-19.84Q362.92-21.20 365.84-21.20L365.84-21.20Q368.76-21.20 371.08-19.84Q373.40-18.48 374.72-16.06Q376.04-13.64 376.04-10.52L376.04-10.52ZM365.84-18.76Q362.80-18.76 360.74-16.82Q358.68-14.88 358.40-11.76L358.40-11.76L373.32-11.76Q373.04-14.88 370.98-16.82Q368.92-18.76 365.84-18.76L365.84-18.76Z M383.36-4.16Q384.28-4.16 384.88-3.54Q385.48-2.92 385.48-2L385.48-2Q385.48-1.52 385.34-0.96Q385.20-0.40 384.92 0.32L384.92 0.32L383.24 5.84L381.32 5.84L382.68 0.04Q382.04-0.16 381.64-0.70Q381.24-1.24 381.24-2L381.24-2Q381.24-2.92 381.84-3.54Q382.44-4.16 383.36-4.16L383.36-4.16Z M425.92 0L422.56-7.48L406.96-7.48L403.60 0L400.52 0L413.32-28L416.24-28L429.04 0L425.92 0ZM408.04-9.88L421.48-9.88L414.76-24.92L408.04-9.88Z M460.52-21.20Q464.48-21.20 466.74-18.92Q469.00-16.64 469.00-12.20L469.00-12.20L469.00 0L466.16 0L466.16-11.92Q466.16-15.20 464.58-16.92Q463.00-18.64 460.12-18.64L460.12-18.64Q456.84-18.64 454.96-16.62Q453.08-14.60 453.08-11.04L453.08-11.04L453.08 0L450.24 0L450.24-11.92Q450.24-15.20 448.66-16.92Q447.08-18.64 444.16-18.64L444.16-18.64Q440.92-18.64 439.02-16.62Q437.12-14.60 437.12-11.04L437.12-11.04L437.12 0L434.28 0L434.28-21.04L437.00-21.04L437.00-17.20Q438.12-19.12 440.12-20.16Q442.12-21.20 444.72-21.20L444.72-21.20Q447.36-21.20 449.30-20.08Q451.24-18.96 452.20-16.76L452.20-16.76Q453.36-18.84 455.54-20.02Q457.72-21.20 460.52-21.20L460.52-21.20Z M488.76-21.20Q491.72-21.20 494.12-19.86Q496.52-18.52 497.88-16.08Q499.24-13.64 499.24-10.52L499.24-10.52Q499.24-7.36 497.88-4.92Q496.52-2.48 494.14-1.14Q491.76 0.20 488.76 0.20L488.76 0.20Q486.20 0.20 484.14-0.86Q482.08-1.92 480.76-3.96L480.76-3.96L480.76 7.76L477.92 7.76L477.92-21.04L480.64-21.04L480.64-16.88Q481.92-18.96 484.02-20.08Q486.12-21.20 488.76-21.20L488.76-21.20ZM488.56-2.32Q490.76-2.32 492.56-3.34Q494.36-4.36 495.38-6.24Q496.40-8.12 496.40-10.52L496.40-10.52Q496.40-12.92 495.38-14.78Q494.36-16.64 492.56-17.68Q490.76-18.72 488.56-18.72L488.56-18.72Q486.32-18.72 484.54-17.68Q482.76-16.64 481.74-14.78Q480.72-12.92 480.72-10.52L480.72-10.52Q480.72-8.12 481.74-6.24Q482.76-4.36 484.54-3.34Q486.32-2.32 488.56-2.32L488.56-2.32Z M506.24 0L506.24-29.68L509.08-29.68L509.08 0L506.24 0Z M533.08-21.04L535.88-21.04L525.36 2.52Q524.08 5.48 522.40 6.72Q520.72 7.96 518.36 7.96L518.36 7.96Q516.84 7.96 515.52 7.48Q514.20 7 513.24 6.04L513.24 6.04L514.56 3.92Q516.16 5.52 518.40 5.52L518.40 5.52Q519.84 5.52 520.86 4.72Q521.88 3.92 522.76 2L522.76 2L523.68-0.04L514.28-21.04L517.24-21.04L525.16-3.16L533.08-21.04Z M548.04-27.48Q546.20-27.48 545.26-26.48Q544.32-25.48 544.32-23.52L544.32-23.52L544.32-21.04L550.80-21.04L550.80-18.64L544.40-18.64L544.40 0L541.56 0L541.56-18.64L537.80-18.64L537.80-21.04L541.56-21.04L541.56-23.64Q541.56-26.52 543.22-28.20Q544.88-29.88 547.92-29.88L547.92-29.88Q549.12-29.88 550.24-29.54Q551.36-29.20 552.12-28.56L552.12-28.56L551.16-26.44Q549.92-27.48 548.04-27.48L548.04-27.48Z M571.12-21.04L573.92-21.04L563.40 2.52Q562.12 5.48 560.44 6.72Q558.76 7.96 556.40 7.96L556.40 7.96Q554.88 7.96 553.56 7.48Q552.24 7 551.28 6.04L551.28 6.04L552.60 3.92Q554.20 5.52 556.44 5.52L556.44 5.52Q557.88 5.52 558.90 4.72Q559.92 3.92 560.80 2L560.80 2L561.72-0.04L552.32-21.04L555.28-21.04L563.20-3.16L571.12-21.04Z M579.12 0L579.12-21.04L581.96-21.04L581.96 0L579.12 0ZM580.56-25.64Q579.68-25.64 579.08-26.24Q578.48-26.84 578.48-27.68L578.48-27.68Q578.48-28.48 579.08-29.08Q579.68-29.68 580.56-29.68L580.56-29.68Q581.44-29.68 582.04-29.10Q582.64-28.52 582.64-27.72L582.64-27.72Q582.64-26.84 582.04-26.24Q581.44-25.64 580.56-25.64L580.56-25.64Z M601.80-21.20Q605.76-21.20 608.10-18.90Q610.44-16.60 610.44-12.20L610.44-12.20L610.44 0L607.60 0L607.60-11.92Q607.60-15.20 605.96-16.92Q604.32-18.64 601.28-18.64L601.28-18.64Q597.88-18.64 595.90-16.62Q593.92-14.60 593.92-11.04L593.92-11.04L593.92 0L591.08 0L591.08-21.04L593.80-21.04L593.80-17.16Q594.96-19.08 597.02-20.14Q599.08-21.20 601.80-21.20L601.80-21.20Z M636.20-21.04L638.92-21.04L638.92-2.56Q638.92 2.80 636.30 5.38Q633.68 7.96 628.40 7.96L628.40 7.96Q625.48 7.96 622.86 7.10Q620.24 6.24 618.60 4.72L618.60 4.72L620.04 2.56Q621.56 3.92 623.74 4.68Q625.92 5.44 628.32 5.44L628.32 5.44Q632.32 5.44 634.20 3.58Q636.08 1.72 636.08-2.20L636.08-2.20L636.08-4.88Q634.76-2.88 632.62-1.84Q630.48-0.80 627.88-0.80L627.88-0.80Q624.92-0.80 622.50-2.10Q620.08-3.40 618.70-5.74Q617.32-8.08 617.32-11.04L617.32-11.04Q617.32-14 618.70-16.32Q620.08-18.64 622.48-19.92Q624.88-21.20 627.88-21.20L627.88-21.20Q630.56-21.20 632.72-20.12Q634.88-19.04 636.20-17L636.20-17L636.20-21.04ZM628.16-3.32Q630.44-3.32 632.28-4.30Q634.12-5.28 635.14-7.04Q636.16-8.80 636.16-11.04L636.16-11.04Q636.16-13.28 635.14-15.02Q634.12-16.76 632.30-17.74Q630.48-18.72 628.16-18.72L628.16-18.72Q625.88-18.72 624.06-17.76Q622.24-16.80 621.22-15.04Q620.20-13.28 620.20-11.04L620.20-11.04Q620.20-8.80 621.22-7.04Q622.24-5.28 624.06-4.30Q625.88-3.32 628.16-3.32L628.16-3.32Z M660.36 0L660.36-28L663.32-28L663.32 0L660.36 0Z M699.28-21.20Q703.24-21.20 705.50-18.92Q707.76-16.64 707.76-12.20L707.76-12.20L707.76 0L704.92 0L704.92-11.92Q704.92-15.20 703.34-16.92Q701.76-18.64 698.88-18.64L698.88-18.64Q695.60-18.64 693.72-16.62Q691.84-14.60 691.84-11.04L691.84-11.04L691.84 0L689.00 0L689.00-11.92Q689.00-15.20 687.42-16.92Q685.84-18.64 682.92-18.64L682.92-18.64Q679.68-18.64 677.78-16.62Q675.88-14.60 675.88-11.04L675.88-11.04L675.88 0L673.04 0L673.04-21.04L675.76-21.04L675.76-17.20Q676.88-19.12 678.88-20.16Q680.88-21.20 683.48-21.20L683.48-21.20Q686.12-21.20 688.06-20.08Q690.00-18.96 690.96-16.76L690.96-16.76Q692.12-18.84 694.30-20.02Q696.48-21.20 699.28-21.20L699.28-21.20Z M727.52-21.20Q730.48-21.20 732.88-19.86Q735.28-18.52 736.64-16.08Q738.00-13.64 738.00-10.52L738.00-10.52Q738.00-7.36 736.64-4.92Q735.28-2.48 732.90-1.14Q730.52 0.20 727.52 0.20L727.52 0.20Q724.96 0.20 722.90-0.86Q720.84-1.92 719.52-3.96L719.52-3.96L719.52 7.76L716.68 7.76L716.68-21.04L719.40-21.04L719.40-16.88Q720.68-18.96 722.78-20.08Q724.88-21.20 727.52-21.20L727.52-21.20ZM727.32-2.32Q729.52-2.32 731.32-3.34Q733.12-4.36 734.14-6.24Q735.16-8.12 735.16-10.52L735.16-10.52Q735.16-12.92 734.14-14.78Q733.12-16.64 731.32-17.68Q729.52-18.72 727.32-18.72L727.32-18.72Q725.08-18.72 723.30-17.68Q721.52-16.64 720.50-14.78Q719.48-12.92 719.48-10.52L719.48-10.52Q719.48-8.12 720.50-6.24Q721.52-4.36 723.30-3.34Q725.08-2.32 727.32-2.32L727.32-2.32Z M752.24-21.20Q756.36-21.20 758.56-19.14Q760.76-17.08 760.76-13.04L760.76-13.04L760.76 0L758.04 0L758.04-3.28Q757.08-1.64 755.22-0.72Q753.36 0.20 750.80 0.20L750.80 0.20Q747.28 0.20 745.20-1.48Q743.12-3.16 743.12-5.92L743.12-5.92Q743.12-8.60 745.06-10.24Q747.00-11.88 751.24-11.88L751.24-11.88L757.92-11.88L757.92-13.16Q757.92-15.88 756.40-17.30Q754.88-18.72 751.96-18.72L751.96-18.72Q749.96-18.72 748.12-18.06Q746.28-17.40 744.96-16.24L744.96-16.24L743.68-18.36Q745.28-19.72 747.52-20.46Q749.76-21.20 752.24-21.20L752.24-21.20ZM751.24-2.04Q753.64-2.04 755.36-3.14Q757.08-4.24 757.92-6.32L757.92-6.32L757.92-9.76L751.32-9.76Q745.92-9.76 745.92-6L745.92-6Q745.92-4.16 747.32-3.10Q748.72-2.04 751.24-2.04L751.24-2.04Z M778.48 0.20Q775.36 0.20 772.90-1.16Q770.44-2.52 769.04-4.98Q767.64-7.44 767.64-10.52L767.64-10.52Q767.64-13.60 769.04-16.04Q770.44-18.48 772.90-19.84Q775.36-21.20 778.48-21.20L778.48-21.20Q781.20-21.20 783.34-20.14Q785.48-19.08 786.72-17.04L786.72-17.04L784.60-15.60Q783.56-17.16 781.96-17.94Q780.36-18.72 778.48-18.72L778.48-18.72Q776.20-18.72 774.38-17.70Q772.56-16.68 771.54-14.80Q770.52-12.92 770.52-10.52L770.52-10.52Q770.52-8.08 771.54-6.22Q772.56-4.36 774.38-3.34Q776.20-2.32 778.48-2.32L778.48-2.32Q780.36-2.32 781.96-3.08Q783.56-3.84 784.60-5.40L784.60-5.40L786.72-3.96Q785.48-1.92 783.32-0.86Q781.16 0.20 778.48 0.20L778.48 0.20Z M803.80-3.32L804.80-1.28Q804.00-0.56 802.82-0.18Q801.64 0.20 800.36 0.20L800.36 0.20Q797.40 0.20 795.80-1.40Q794.20-3 794.20-5.92L794.20-5.92L794.20-18.64L790.44-18.64L790.44-21.04L794.20-21.04L794.20-25.64L797.04-25.64L797.04-21.04L803.44-21.04L803.44-18.64L797.04-18.64L797.04-6.08Q797.04-4.20 797.98-3.22Q798.92-2.24 800.68-2.24L800.68-2.24Q801.56-2.24 802.38-2.52Q803.20-2.80 803.80-3.32L803.80-3.32Z"/></g>
</svg>
</g></svg></svg>