<svg xmlns="http://www.w3.org/2000/svg" version="1.1" viewBox="0 0 1600 800" width="1280" height="1280">
<path transform="translate(513 169)" d="m0 0c0.756-0.00935 1.51-0.0187 2.29-0.0283 14 0.0794 26.4 6.98 38.6 13.3v2c0.733 0.113 1.47 0.226 2.22 0.343 2.87 0.679 4.76 1.62 7.26 3.17 0.83 0.507 1.66 1.01 2.51 1.54 0.869 0.541 1.74 1.08 2.63 1.64 1.81 1.11 3.62 2.21 5.44 3.32 0.862 0.526 1.72 1.05 2.61 1.59 3.4 2.05 6.88 3.95 10.4 5.82 4.23 2.27 8.43 4.62 12.6 6.95 0.816 0.454 1.63 0.908 2.47 1.38 1.95 1.08 3.89 2.17 5.84 3.25v2c0.539 0.103 1.08 0.206 1.63 0.312 15.9 4.62 34.3 18 43.4 31.7v2h2c8.24 15.5 11.2 29.1 11.1 46.6 0.00504 1.5 0.00504 1.5 0.0102 3.03 0.00942 3.27 0.0114 6.54 0.0125 9.82 0.00322 2.3 0.00658 4.6 0.0101 6.9 0.00597 4.81 0.00784 9.62 0.00725 14.4-1.01e-4 6.12 0.0135 12.2 0.0308 18.4 0.0112 4.75 0.0131 9.5 0.0126 14.2 0.00117 2.26 0.00553 4.51 0.0133 6.77 0.0677 21.6 0.0687 43-14.2 60.8-0.99 0.33-1.98 0.66-3 1-0.679 1.33-1.34 2.66-2 4-6.67 7.25-14.6 12.1-23.2 16.8-1.7 0.962-1.7 0.962-3.44 1.94-3.12 1.76-6.24 3.5-9.37 5.24-5.06 2.85-10.1 5.8-15.1 8.75-6.9 4.07-13.8 8.09-20.8 12-2.57 1.46-5.13 2.92-7.7 4.39-23.4 13.4-45.8 25.6-73.7 18.3-10.7-3.56-20.7-9.09-30.3-15.1-3.9-2.29-7.99-4.15-12.1-6.05-2.37-1.39-2.37-1.39-3.37-4.39-1.99-0.694-3.99-1.35-6-2-2.97-1.52-5.82-3.23-8.69-4.94-1.69-0.991-3.38-1.98-5.07-2.97-1.3-0.764-1.3-0.764-2.62-1.54-4.24-2.49-8.5-4.96-12.8-7.42-0.756-0.439-1.51-0.879-2.29-1.33-3.76-2.18-7.54-4.33-11.3-6.42-3.07-1.7-6.03-3.45-8.93-5.43-2.53-1.72-5.05-3.41-7.62-5.06-2.55-1.78-4.65-3.53-6.69-5.88v-2h-2c-7.99-9.4-14.4-20.6-16-33-0.17-0.829-0.339-1.66-0.514-2.51-0.659-4.73-0.633-9.39-0.631-14.2-0.00504-1.6-0.00504-1.6-0.0102-3.22-0.00949-3.51-0.0115-7.03-0.0125-10.5-0.00321-2.45-0.00658-4.9-0.0101-7.35-0.00599-5.14-0.00784-10.3-0.00725-15.4 1.01e-4 -6.56-0.0135-13.1-0.0308-19.7-0.0112-5.07-0.0131-10.1-0.0126-15.2-0.00117-2.42-0.00557-4.84-0.0133-7.25-0.00988-3.4-0.00689-6.79-8.95e-4 -10.2-0.00562-0.985-0.0112-1.97-0.017-2.99 0.0843-18.9 6.14-36.5 19.1-50.5 1.66-1.44 3.36-2.72 5.15-4 1.69-1.39 3.38-2.79 5.06-4.19 3.52-2.8 6.83-4.93 10.9-6.81 4.24-2.45 8.41-5.03 12.6-7.58 3.69-2.24 7.33-4.43 11.2-6.29 4.3-2.08 8.29-4.61 12.3-7.13 3.78-2.36 7.61-4.58 11.5-6.71 5.64-3.12 11.2-6.38 16.7-9.75 3.95-2.33 8.02-4.44 12.1-6.58 2.77-1.47 5.49-2.94 8.17-4.58 4.2-2.45 8.76-3.87 13.4-5.38 0.687-0.231 1.37-0.461 2.08-0.699 5.26-1.46 10.6-1.5 16-1.55zm-41.3 101c-3.58 2.13-7.19 4.21-10.8 6.26-1 0.57-2 1.14-3.04 1.73-0.958 0.544-1.92 1.09-2.9 1.65-2.33 1.33-4.67 2.67-7 4v2c-0.619 0.248-1.24 0.495-1.88 0.75-2.48 1.46-3.08 2.63-4.12 5.25h-2c-0.987 1.89-1.96 3.79-2.94 5.69-0.545 1.06-1.09 2.11-1.65 3.2-2.11 4.65-2.54 8.77-2.56 13.8-0.00638 1.13-0.0128 2.26-0.0193 3.42-0.00111 1.21-0.00223 2.42-0.00337 3.67-0.00333 1.26-0.00666 2.51-0.0101 3.81-0.00506 2.66-0.00784 5.32-0.00725 7.98 1.01e-4 3.38-0.0135 6.76-0.0308 10.1-0.0139 3.25-0.0132 6.51-0.0144 9.76-0.00719 1.2-0.0144 2.4-0.0218 3.64 0.0314 11.7 0.983 21.1 9.25 29.8 5.69 4.86 11.8 8.91 19 11v2c9.04 5.95 9.04 5.95 19 9v2c0.874 0.437 0.874 0.437 1.77 0.883 0.82 0.41 1.64 0.82 2.48 1.24 1.36 0.679 1.36 0.679 2.75 1.37 2.05 1.03 4.09 2.06 6.12 3.1 1.03 0.525 2.06 1.05 3.12 1.59 0.954 0.489 1.91 0.977 2.89 1.48 8.49 3.96 14.6 4.28 23.4 1.39 6.85-2.58 12.9-6.07 19.1-9.98 3.06-1.89 6.15-3.5 9.38-5.09 1.62-0.94 3.22-1.9 4.81-2.88 3.14-1.92 6.3-3.73 9.56-5.44 8.66-4.81 17.5-10.3 21.6-19.7 0.754-1.63 0.754-1.63 1.52-3.29 2.21-5.96 1.99-12.1 2.06-18.3 0.0227-1.3 0.0454-2.6 0.0688-3.94 0.0466-2.74 0.0834-5.49 0.113-8.23 0.0378-3.5 0.0979-6.99 0.165-10.5 0.0621-3.36 0.107-6.72 0.153-10.1 0.0228-1.25 0.0456-2.49 0.069-3.78 0.078-8.73-1.13-15.7-4.28-23.9-0.53-1.44-0.53-1.44-1.07-2.91-4.27-7.17-11.6-11.4-18.7-15.5-0.846-0.497-1.69-0.994-2.56-1.51-1.85-1.08-3.7-2.16-5.56-3.24-3.21-1.87-6.4-3.78-9.6-5.69-2.26-1.34-4.52-2.67-6.78-4-1.04-0.626-2.09-1.25-3.16-1.9-27.5-16.1-42.5-6.91-67.7 8.2z" fill="#0071A4"/>
<path transform="translate(1044,371)" d="m0 0h15c0.33 17.2 0.66 34.3 1 52 4.45-4.95 4.45-4.95 9-10 10.5-6.14 21.6-8 33.6-4.88 11.6 4.35 19.6 11.6 25.3 22.5 6.65 14.6 6.87 32.4 1.35 47.4-5.55 12.6-12.8 20-25.6 25-8.87 3.07-20.9 3.68-29.7 0.125-6.03-3.51-10.7-8.1-14-14.2-0.0606 0.927-0.121 1.85-0.184 2.81-0.0838 1.2-0.168 2.4-0.254 3.63-0.0812 1.19-0.162 2.39-0.246 3.62-0.316 2.94-0.316 2.94-1.32 3.94h-14v-132zm23 53c-7.04 10.4-8.38 20.5-8.31 32.9 0.00564 1.06 0.0113 2.11 0.0171 3.2 0.156 10 0.823 19.2 7.48 27.2 6.74 6.52 12.9 9.11 22.2 8.96 8.16-0.637 14.3-3.99 19.7-10.2 8.56-13.5 9.27-30.7 6.35-46.2-2.41-8.71-6.89-15.8-14.5-20.8-10.4-5.77-24.9-4.33-32.9 5z" fill="#000001"/>
<path transform="translate(844,172)" d="m0 0c3.1-0.116 6.21-0.187 9.31-0.25 0.881-0.0335 1.76-0.067 2.67-0.102 0.848-0.0129 1.7-0.0258 2.57-0.0391 0.78-0.0209 1.56-0.0419 2.36-0.0635 2.08 0.454 2.08 0.454 3.62 1.92 2.14 3.71 3.71 7.59 5.31 11.6 0.372 0.905 0.743 1.81 1.13 2.74 1.22 2.98 2.43 5.96 3.65 8.93 0.848 2.07 1.7 4.14 2.55 6.21 1.75 4.26 3.49 8.52 5.24 12.8 3.57 8.71 7.16 17.4 10.8 26.1 1.05 2.52 2.09 5.05 3.13 7.57 3.43 8.29 6.92 16.6 10.6 24.7 2.09 4.7 2.09 4.7 2.09 6.92h2c0.394-1.23 0.789-2.45 1.2-3.71 2.01-6.03 4.34-11.9 6.68-17.8 0.48-1.22 0.961-2.44 1.46-3.69 4.91-12.4 9.96-24.8 15-37.2 2.26-5.55 4.51-11.1 6.75-16.7 1.03-2.55 2.06-5.11 3.09-7.66 0.669-1.66 1.34-3.32 2-4.98 0.93-2.32 1.86-4.63 2.8-6.95 0.276-0.692 0.553-1.38 0.838-2.1 1.2-2.96 2.4-5.5 4.18-8.16 3.01-0.407 5.97-0.13 9 0-2.35 7.43-5.23 14.6-8.25 21.8-1.08 2.59-2.16 5.18-3.24 7.78-0.424 1.02-0.424 1.02-0.857 2.06-3.41 8.22-6.75 16.5-10.1 24.7-0.314 0.775-0.627 1.55-0.95 2.35-1.27 3.13-2.53 6.26-3.8 9.39-2.15 5.32-4.32 10.6-6.48 16-0.589 1.45-1.18 2.89-1.77 4.34-0.83 2.04-1.66 4.08-2.49 6.11-2.65 6.48-5.25 13-7.73 19.5-1.69 4.41-3.48 8.64-5.65 12.8-0.512 0.996-1.02 1.99-1.55 3.02-0.375 0.715-0.75 1.43-1.14 2.17-1.58 0.163-3.16 0.279-4.75 0.375-1.32 0.104-1.32 0.104-2.67 0.211-2.58-0.586-2.58-0.586-4.71-3.15-1.92-3.53-3.53-7.08-4.99-10.8-0.62-1.54-1.24-3.08-1.86-4.62-0.328-0.819-0.656-1.64-0.995-2.48-1.74-4.31-3.54-8.6-5.33-12.9-0.406-0.974-0.812-1.95-1.23-2.95-2.86-6.86-5.73-13.7-8.61-20.6-7.3-17.4-14.6-34.8-21.8-52.3-0.291-0.705-0.582-1.41-0.882-2.14-2.83-6.86-5.64-13.7-8.18-20.7z" fill="#000001"/>
<path transform="translate(844,371)" d="m0 0h20c0.996 2.4 0.996 2.4 2.01 4.84 3.58 8.58 7.19 17.2 10.8 25.7 0.68 1.62 1.36 3.23 2.04 4.85 0.336 0.799 0.673 1.6 1.02 2.42 0.683 1.62 1.37 3.24 2.05 4.87 1.7 4.03 3.4 8.06 5.1 12.1 3.35 7.93 6.67 15.9 9.94 23.8 0.963 2.34 1.93 4.68 2.89 7.02 0.655 1.59 1.31 3.19 1.96 4.79 0.961 2.36 1.93 4.71 2.9 7.06 0.288 0.712 0.575 1.42 0.871 2.16 1.38 3.32 2.56 6.06 5.42 8.34 0.294-0.807 0.588-1.61 0.891-2.45 9.22-25 19.5-49.5 29.5-74.2 1.83-4.5 3.65-9 5.47-13.5 0.81-2 1.62-3.99 2.43-5.99 0.532-1.32 0.532-1.32 1.07-2.67 0.483-1.19 0.483-1.19 0.976-2.4 0.407-1.01 0.407-1.01 0.822-2.03 0.815-1.77 0.815-1.77 2.82-4.77 3.01-0.407 5.97-0.13 9 0-4.21 11.5-8.74 22.9-13.4 34.2-1.6 3.88-3.19 7.77-4.79 11.7-0.804 1.96-1.61 3.92-2.41 5.88-3.12 7.6-6.23 15.2-9.32 22.8-0.764 1.88-1.53 3.76-2.29 5.64-2.61 6.43-5.21 12.9-7.8 19.3-1.38 3.44-2.77 6.88-4.16 10.3-0.672 1.67-1.34 3.33-2.01 5-0.929 2.32-1.86 4.63-2.8 6.94-0.276 0.692-0.553 1.38-0.838 2.1-1.2 2.96-2.4 5.5-4.18 8.16-2.24 0.504-2.24 0.504-4.88 0.562-1.3 0.0638-1.3 0.0638-2.62 0.129-2.51-0.691-2.51-0.691-4.63-3.27-1.93-3.52-3.54-7.07-5-10.8-0.612-1.52-1.23-3.05-1.84-4.57-0.327-0.816-0.655-1.63-0.992-2.47-1.87-4.63-3.8-9.23-5.73-13.8-3.57-8.55-7.12-17.1-10.7-25.7-3.53-8.53-7.06-17.1-10.7-25.6-3.2-7.56-6.36-15.1-9.5-22.7-0.534-1.29-1.07-2.57-1.6-3.86-0.755-1.82-1.51-3.63-2.26-5.45-0.436-1.05-0.872-2.1-1.32-3.19-1.5-3.73-2.9-7.5-4.32-11.3z" fill="#000001"/>
<path transform="translate(1178 215)" d="m0 0c7.07 6.75 8.59 15.9 9.04 25.4 0.0596 4.06 0.0549 8.11 0.0246 12.2-0.00374 1.49-0.00658 2.97-0.00858 4.46-0.00756 3.87-0.0271 7.75-0.0494 11.6-0.0206 3.97-0.0296 7.94-0.0397 11.9-0.0213 7.76-0.0564 15.5-0.0977 23.3h-14c-1.1-3.29-0.8-4.71 0-8-0.701 0.398-1.4 0.797-2.12 1.21-12.7 7.09-25.2 11.3-39.9 8.14-9.07-2.96-14.8-7.74-19.4-16.1-4.35-9.59-4.37-17.2-0.918-27.2 4.04-9.2 10.8-15.3 20.1-19.2 4.24-1.11 8.19-1.25 12.6-1.24 0.844 0.00161 1.69 0.00322 2.56 0.00488 9.3 0.183 15.7 2.99 23.2 8.37 1.32 0.694 2.65 1.38 4 2-0.33-0.66-0.66-1.32-1-2-0.113-2.04-0.22-4.08-0.29-6.12-0.414-12.6-0.414-12.6-5.77-23.8-6.31-4.57-13-5.76-20.6-4.63-7.49 1.63-13.4 5.46-17.9 11.7-1.21 1.92-2.36 3.85-3.45 5.83-1.13-0.957-2.25-1.92-3.38-2.88-0.626-0.534-1.25-1.07-1.9-1.62-1.28-1.12-2.52-2.3-3.73-3.51 0.324-3.29 1.47-4.84 3.94-6.94 15.5-12.6 42.6-15.2 59.2-2.85zm-48 41.7c-5.26 7.58-6.87 14-6.12 23.1 1.45 6.85 5.22 12.1 10.7 16.3 5.97 3.59 12.5 3.51 19.3 2.68 3.02-0.919 5.42-2.19 8-4 0.553-0.385 1.11-0.771 1.68-1.17 4.21-3.23 7.39-7.01 9.07-12.1 0.848-9.32 0.516-16.8-5.31-24.4-5.35-5.73-11.7-8.57-19.5-8.94-7.32 0.339-12.9 3.09-17.8 8.56z" fill="#000001"/>
<path transform="translate(1224 415)" d="m0 0c12.7 11 16.4 22.8 17.9 39.2 0.199 3.75 0.199 3.75-0.801 5.75-35.1 0.495-35.1 0.495-71 1 0.975 10.7 2.52 20.5 10.2 28.5 7.49 6.16 17 8.83 26.6 8.3 9.79-1.44 17.5-5.57 24.4-12.6 1.79-1.26 1.79-1.26 3.91-1.08 2.47 1.08 3.44 2.59 4.88 4.82-8.24 9.04-18.8 14.5-31 16-15 0.632-27.8-0.26-40.3-9.75-11.3-10.5-16-24.4-16.8-39.5 0.23-14.7 4.81-27 15-37.8 14.9-14 40.6-14.8 56.9-2.85zm-44.6 5.66c-7.22 8.98-10.2 19.7-10.2 31.2 2.54 1.27 4.32 1.13 7.17 1.13 1.62 0.00473 1.62 0.00473 3.27 0.00955 1.17-0.00202 2.34-0.00405 3.54-0.00613 1.79 0.00144 1.79 0.00144 3.62 0.0029 2.53 6.81e-4 5.05-0.00117 7.58-0.00534 3.88-0.00535 7.76-5.13e-5 11.6 0.00635 2.45-6.61e-4 4.9-0.00194 7.35-0.00391 1.17 0.00202 2.34 0.00405 3.54 0.00613 1.61-0.00473 1.61-0.00473 3.26-0.00955 1.43-0.00119 1.43-0.00119 2.88-0.00241 2.14 0.114 2.14 0.114 3.16-1.13-0.0765-11.6-2.64-22.8-10-32-7.02-6-12.9-7.39-22-7.27-6.48 0.575-10.4 3.34-14.8 8.02z" fill="#000001"/>
<path transform="translate(752,128)" d="m0 0h7v419h-7v-419z" fill="#000002"/>
<path transform="translate(1223,172)" d="m0 0c2.54 0.0909 5.04 0.237 7.56 0.438 1.07 0.0783 1.07 0.0783 2.15 0.158 1.76 0.13 3.52 0.267 5.28 0.404 0.0233 16.9 0.041 33.9 0.0518 50.8 0.00516 7.86 0.0122 15.7 0.0236 23.6 0.00995 6.85 0.0164 13.7 0.0186 20.5 0.00131 3.63 0.00439 7.26 0.0116 10.9 0.00801 4.04 0.00826 8.09 0.0078 12.1 0.0036 1.21 0.00719 2.42 0.0109 3.67-0.00137 1.1-0.00275 2.19-0.00417 3.32 9.22e-4 0.958 0.00184 1.92 0.00279 2.9-0.123 2.15-0.123 2.15-1.12 3.15-2.53 0.0731-5.03 0.0925-7.56 0.0625-0.711-0.00451-1.42-0.00902-2.15-0.0137-1.76-0.0118-3.52-0.0298-5.28-0.0488-0.0233-17.1-0.041-34.1-0.0518-51.2-0.00516-7.92-0.0122-15.8-0.0236-23.8-0.00995-6.9-0.0164-13.8-0.0186-20.7-0.00131-3.66-0.00439-7.31-0.0116-11-0.00801-4.08-0.00826-8.15-0.0078-12.2-0.0036-1.22-0.00719-2.44-0.0109-3.7 0.00137-1.1 0.00275-2.21 0.00417-3.34-9.22e-4 -0.965-0.00184-1.93-0.00279-2.92 0.123-2.17 0.123-2.17 1.12-3.17z" fill="#000001"/>
<path transform="translate(1094,211)" d="m0 0c2.5 2.19 2.5 2.19 4 4-1.23 4.05-2.7 7.44-5 11-0.471-0.349-0.941-0.699-1.43-1.06-0.623-0.455-1.25-0.91-1.89-1.38-0.615-0.452-1.23-0.905-1.86-1.37-4.31-2.82-8.86-2.63-13.8-2.19-5.34 1.57-7.65 4.76-10.7 9.16-3.92 8.59-3.63 18.1-3.71 27.4-0.0188 1.38-0.0383 2.75-0.0587 4.13-0.0509 3.59-0.0907 7.17-0.128 10.8-0.0403 3.67-0.0913 7.35-0.141 11-0.0963 7.18-0.18 14.4-0.258 21.6h-15v-94h14c1.88 1.88 1.39 5.04 1.56 7.56 0.0838 1.2 0.168 2.4 0.254 3.63 0.0606 0.927 0.121 1.85 0.184 2.81 0.436-0.592 0.871-1.18 1.32-1.79 8.63-11.4 18.5-18.7 32.7-11.2z" fill="#000001"/>
<path transform="translate(992,210)" d="m0 0c2.31-0.0269 4.62-0.0463 6.94-0.0625 1.29-0.0116 2.58-0.0232 3.9-0.0352 3.16 0.0977 3.16 0.0977 4.16 1.1 0.0952 2.89 0.126 5.76 0.114 8.65 1.46e-4 0.907 2.92e-4 1.81 4.43e-4 2.75-6.99e-4 3.01-0.00849 6.03-0.0163 9.04-0.00186 2.08-0.00329 4.17-0.00429 6.25-0.00383 5.5-0.0137 11-0.0247 16.5-0.0102 5.6-0.0148 11.2-0.0198 16.8-0.0107 11-0.0278 22-0.0488 33h-15c-0.944-4.72-1.1-8.97-1.02-13.7 0.00961-0.869 0.0192-1.74 0.0291-2.63 0.0329-2.86 0.0733-5.72 0.114-8.59 0.0243-1.99 0.0482-3.98 0.0715-5.96 0.0627-5.23 0.132-10.5 0.202-15.7 0.0708-5.34 0.136-10.7 0.201-16 0.129-10.5 0.264-20.9 0.404-31.4z" fill="#000002"/>
<path transform="translate(992,409)" d="m0 0h15v94h-15c-0.154-12.1-0.302-24.2-0.443-36.3-0.0657-5.62-0.133-11.2-0.205-16.9-0.0692-5.42-0.134-10.8-0.195-16.3-0.0242-2.07-0.0501-4.15-0.0778-6.22-0.0384-2.89-0.0706-5.79-0.101-8.68-0.0129-0.866-0.0259-1.73-0.0392-2.62-0.018-2.01 0.0157-4.02 0.061-6.03 0.33-0.33 0.66-0.66 1-1z" fill="#000002"/>
<path transform="translate(1107,604)" d="m0 0c2.29-0.766 2.29-0.766 4-2 2.56 2.56 1.23 9.63 1.25 13.1 0.0206 1.12 0.0412 2.24 0.0625 3.4 0.0341 7.25-0.00604 13.8-5.07 19.5-3.12 1.42-5.7 1.42-9.12 1.4-1.19 0.00773-2.39 0.0155-3.62 0.0234-3.77-0.429-6.24-1.51-9.51-3.4v-2c0.557 0.144 1.11 0.289 1.69 0.438 5.25 1.28 9.92 2.19 15.3 1.56 3.13-1.96 3.13-1.96 5-5 0.419-3.21 0.419-3.21 0-6-0.804 0.495-1.61 0.99-2.44 1.5-4.39 1.85-7.86 2.25-12.6 1.5-3.71-1.79-5.54-3.36-7.94-6.69-1.41-4.39-1.27-7.88-0.0625-12.3 5.39-8.73 14.2-8.61 23-5zm-19 4c-1.24 3.71-1.56 7.14-1 11 1.79 2.81 3.02 4.51 6 6 4.63 0.555 7.98 0.636 12-1.88 3.03-3.22 3.42-5.57 3.34-10-0.615-3.86-2.44-5.63-5.34-8.11-5.98-2.34-10-0.651-15 3z" fill="#000001"/>
<path transform="translate(303 603)" d="m0 0c0.846 0.289 1.69 0.577 2.56 0.875 0.99-0.66 1.98-1.32 3-2 1.19 5.34 1.22 10.5 1.25 15.9 0.0206 0.976 0.0412 1.95 0.0625 2.96 0.0365 6.72-1.02 10.8-4.94 16.4-3.61 2.57-7 2.88-11.4 2.69-4.9-0.997-8.16-1.74-11-6 2.76 0.523 5.33 1.11 8 2 4.8 0.629 7.97 0.732 12-2.12 2.15-3.09 2.74-5.15 3-8.88-0.969 0.495-1.94 0.99-2.94 1.5-4.37 1.85-8.37 2.24-13.1 1.5-4.11-1.83-6.18-3.72-8-7.75-1.39-4.45-1.01-8.05 1-12.2 5.76-6.77 12-7.62 20.4-4.88zm-17.2 5c-1.63 3.74-2.01 6.86-1.25 10.9 1.79 2.81 3.02 4.51 6 6 4.59 0.643 8.66 0.779 12.5-2.06 2.99-3.51 3.58-5.35 3.5-9.94-1.8-4.57-4.72-6.73-9-9-5.2-0.624-8.39 0.0492-11.8 4.12z" fill="#000001"/>
<path transform="translate(839,602)" d="m0 0c2.05 0.293 4.1 0.586 6.15 0.879 0.61 0.04 1.22 0.0799 1.85 0.121 0.33-0.33 0.66-0.66 1-1 5-0.565 8.82-0.756 13.1 2 0.619 0.66 1.24 1.32 1.88 2 0.784-0.66 1.57-1.32 2.38-2 4.25-2.83 8.69-2.84 13.6-2 2.93 1.8 4.47 2.94 6 6 0.084 1.59 0.107 3.19 0.0977 4.79-0.00322 0.941-0.00645 1.88-0.00977 2.85-0.0126 1.48-0.0126 1.48-0.0254 2.98-0.00451 0.993-0.00902 1.99-0.0137 3.01-0.0118 2.46-0.0283 4.91-0.0488 7.37h-3c-0.0251-0.555-0.0501-1.11-0.0759-1.68-0.116-2.52-0.239-5.05-0.362-7.57-0.0393-0.873-0.0786-1.75-0.119-2.64-0.0419-0.844-0.0838-1.69-0.127-2.56-0.055-1.16-0.055-1.16-0.111-2.35-0.201-2.16-0.623-4.12-1.21-6.2-6.21-1.32-6.21-1.32-12 0.75-2.65 2.98-3.11 5.42-3.32 9.26-0.0419 0.757-0.0838 1.51-0.127 2.29-0.0393 0.786-0.0786 1.57-0.119 2.38-0.0432 0.797-0.0864 1.59-0.131 2.42-0.106 1.97-0.207 3.93-0.307 5.9h-3c-0.0374-1.24-0.0748-2.48-0.113-3.76-0.0657-1.64-0.132-3.28-0.199-4.93-0.0226-0.817-0.0451-1.63-0.0684-2.47-0.21-4.71-0.569-8.02-3.62-11.8-2.81-1.4-4.89-1.25-8-1-2.49 1.35-3.72 2.12-4.59 4.85-0.407 2.11-0.617 4.11-0.731 6.26-0.0419 0.754-0.0838 1.51-0.127 2.29-0.059 1.17-0.059 1.17-0.119 2.36-0.0432 0.793-0.0864 1.59-0.131 2.4-0.106 1.95-0.207 3.9-0.307 5.85h-3c-0.797-3.5-1.12-6.71-1.1-10.3 0.00322-0.976 0.00645-1.95 0.00977-2.96 0.00838-1.01 0.0168-2.01 0.0254-3.05 0.00451-1.03 0.00902-2.05 0.0137-3.11 0.0117-2.53 0.0282-5.05 0.0488-7.58z" fill="#000001"/>
<path transform="translate(474,604)" d="m0 0c2.29-0.766 2.29-0.766 4-2 1.9 3.79 1.23 8.39 1.25 12.6 0.0206 0.965 0.0412 1.93 0.0625 2.92 0.0395 7.32-0.494 14.4-5.56 20-5.72 3.12-10.6 2.59-16.7 1.17-2.02-0.668-2.02-0.668-5.02-2.67v-2c1.13 0.33 2.27 0.66 3.44 1 5.3 1.31 10.8 2.11 15.9 0.0625 2.58-3.27 3.52-7.08 4.62-11.1-1.13 0.66-2.27 1.32-3.44 2-4.58 2.27-8.52 2.92-13.6 2-3.71-1.79-5.54-3.36-7.94-6.69-1.41-4.4-1.38-7.88-0.0625-12.3 5.12-8.84 14.4-8.53 23-5zm-20.4 5.75c-1.11 4.44-0.424 8.72 1.81 12.7 3.02 2.9 6.52 2.89 10.6 2.86 3.36-0.476 5.51-2.17 8.07-4.29 1.6-3.21 1.49-6.52 1-10-2.1-3.44-4.13-5.75-8-7-5.83-0.761-9.71 1.21-13.4 5.75z" fill="#000001"/>
<path transform="translate(1158,602)" d="m0 0c1.14 0.557 1.14 0.557 2.31 1.12 1.33 0.433 1.33 0.433 2.69 0.875 0.99-0.66 1.98-1.32 3-2 2.34-0.301 2.34-0.301 4.94-0.312 0.855-0.0168 1.71-0.0335 2.59-0.0508 2.93 0.43 4.21 1.53 6.47 3.36 3.07-0.279 4.36-1.24 7-3 4.85-0.708 8.8-0.709 13.1 1.81 2.84 3.2 3.06 5.74 3.04 9.86-0.00322 0.893-0.00645 1.79-0.00977 2.71-0.0126 1.39-0.0126 1.39-0.0254 2.81-0.00451 0.94-0.00902 1.88-0.0137 2.85-0.0118 2.32-0.0282 4.64-0.0488 6.96h-3c-0.0258-1.31-0.0516-2.63-0.0781-3.98-0.0563-1.74-0.114-3.47-0.172-5.21-0.0142-0.864-0.0284-1.73-0.043-2.62-0.159-4.15-0.38-6.64-2.54-10.3-2.14-2.24-2.14-2.24-5.67-2.48-3.98 0.639-5.13 1.37-7.5 4.56-0.864 2.59-1.18 4.34-1.32 7.01-0.0419 0.757-0.0838 1.51-0.127 2.29-0.0393 0.786-0.0786 1.57-0.119 2.38-0.0432 0.797-0.0864 1.59-0.131 2.42-0.106 1.97-0.207 3.93-0.307 5.9h-3c-0.0142-1.31-0.0284-2.63-0.043-3.98-0.0469-1.74-0.0952-3.47-0.145-5.21-0.0058-0.864-0.0116-1.73-0.0176-2.62-0.153-4.44-0.388-6.63-3.04-10.3-2.54-2.05-2.54-2.05-5.21-2.14-0.777 0.151-1.55 0.302-2.36 0.457-0.79 0.138-1.58 0.276-2.39 0.418-0.592 0.13-1.18 0.26-1.79 0.395v2h-2c-0.33 6.93-0.66 13.9-1 21h-3c-1.26-9.12-0.744-17.9 0-27z" fill="#000001"/>
<path transform="translate(898,602)" d="m0 0c0.99 0.33 1.98 0.66 3 1v2c0.784-0.495 1.57-0.99 2.38-1.5 4.7-1.95 8.6-2.21 13.6-1.5 4.11 1.79 6.15 3.68 8 7.69 1.47 4.76 1.08 8.79-1 13.3-2.53 3.56-5.13 5.65-9.47 6.47-5.22 0.189-9.03-0.629-13.5-3.47v13h-3c-1.32-5-1.15-9.99-1.12-15.1 0.00193-0.935 0.00387-1.87 0.00586-2.83 0.04-6.39 0.288-12.7 1.12-19zm4.19 7.19c-1.57 3.72-1.92 6.83-1.19 10.8 2.1 3.44 4.13 5.75 8 7 3.86 0.493 5.47 0.352 8.75-1.81 3.18-3.1 4.2-4.57 4.56-9.06-0.132-4.81-1.74-7.55-5.12-10.9-5.88-3.19-11-0.824-15 4z" fill="#000001"/>
<path transform="translate(1216,602)" d="m0 0c0.99 0.33 1.98 0.66 3 1v2c0.784-0.495 1.57-0.99 2.38-1.5 4.7-1.94 8.61-2.22 13.6-1.5 4.13 1.88 5.62 3.36 7.94 7.25 1.67 5.91 1.17 9.76-1.81 15.1-2.33 2.87-3.88 4.46-7.61 4.96-6.2 0.0857-9.77-0.232-14.5-4.34v14h-3c-0.92-5.46-1.16-10.7-1.12-16.2 0.00193-0.832 0.00387-1.66 0.00586-2.52 0.0428-6.11 0.355-12.2 1.12-18.2zm4 7c-1.24 3.71-1.55 7.14-1 11 2.1 3.44 4.13 5.75 8 7 3.01 0.457 5.03 0.585 7.68-1.02 2.73-2.17 4.2-3.65 5.32-6.98 0.538-5.71-0.382-8.56-4-13-6.53-4.35-11.1-2.06-16 3z" fill="#000001"/>
<path transform="translate(1e3 370)" d="m0 0c2.6 1.81 3.35 3.12 5 6 0.157 4.46-0.497 6.36-3.25 9.88-2.84 2.19-4.2 3.04-7.75 3.12-3.66-0.804-4.9-1.88-7.38-4.75-1.62-3.25-1.62-3.25-1.62-6.31 2.64-7.76 7.18-10.3 15-7.94z" fill="#000001"/>
<path transform="translate(1e3 171)" d="m0 0c3 2.62 3 2.62 5 6 0.158 4.5-0.487 6.36-3.31 9.88-3.95 3.12-3.95 3.12-6.69 3.12-3.5-1.17-6.21-2.31-9-4.75-1.54-3.46-1.01-5.64 0-9.25 4.58-5.41 7.02-6.77 14-5z" fill="#000001"/>
<path transform="translate(812,592)" d="m0 0c1.87 0.249 1.87 0.249 4 1 1.19 1.74 1.19 1.74 2.15 4.02 0.363 0.833 0.726 1.67 1.1 2.53 0.558 1.34 0.558 1.34 1.13 2.71 0.787 1.83 1.57 3.65 2.36 5.48 0.382 0.898 0.765 1.8 1.16 2.72 1.92 4.43 4.02 8.77 6.11 13.1 0.996 2.43 0.996 2.43 0.996 5.43-3.21-1.11-3.99-1.99-5.75-5-1.25-3-1.25-3-1.25-5-1.3 0.247-1.3 0.247-2.62 0.5-6.07 0.893-12.3 0.576-18.4 0.5-2.48 4.46-2.48 4.46-5 9h-2c0.647-4.06 1.95-7.47 3.62-11.2 0.525-1.18 1.05-2.36 1.59-3.57 0.274-0.609 0.548-1.22 0.831-1.85 0.834-1.85 1.66-3.71 2.48-5.57 2.28-5.1 4.51-10 7.48-14.8zm1 5c-1.34 2.58-2.67 5.16-4 7.75-0.382 0.73-0.763 1.46-1.16 2.21-0.361 0.709-0.722 1.42-1.09 2.15-0.335 0.649-0.67 1.3-1.02 1.97-0.972 2.2-0.972 2.2-0.734 5.92h18c-0.928-2.37-1.86-4.74-2.81-7.19-0.429-1.11-0.429-1.11-0.866-2.24-1.48-3.74-3.05-7.23-5.32-10.6h-1z" fill="#000001"/>
<path transform="translate(1048,602)" d="m0 0c2.64 0.33 5.28 0.66 8 1 0.33-0.33 0.66-0.66 1-1 9.49-0.957 9.49-0.957 13.6 1.62 3.42 5.66 3.7 10.8 3.56 17.2-0.00902 0.784-0.018 1.57-0.0273 2.38-0.0234 1.92-0.0592 3.83-0.0977 5.75-1.32-0.33-2.64-0.66-4-1-0.014-0.832-0.014-0.832-0.0283-1.68-0.0538-2.52-0.137-5.05-0.222-7.57-0.0142-0.873-0.0284-1.75-0.043-2.64-0.168-5.19-0.168-5.19-2.57-9.69-2.94-1.95-4.67-1.91-8.14-1.42-2.82 1.19-2.82 1.19-5 3-0.886 2.66-1.18 4.48-1.32 7.23-0.0419 0.802-0.0838 1.6-0.127 2.43-0.0393 0.833-0.0786 1.67-0.119 2.53-0.0432 0.845-0.0864 1.69-0.131 2.56-0.106 2.08-0.207 4.17-0.307 6.25-1.32-0.33-2.64-0.66-4-1v-26z" fill="#000001"/>
<path transform="translate(651,602)" d="m0 0c3.52 1.68 5.49 4.12 7.44 7.5 0.562 2.5 0.562 2.5-0.438 7.5h-22c0.66 2.31 1.32 4.62 2 7 3.93 2.05 7.62 2.47 12 2 1.69-0.96 3.36-1.95 5-3 0.66 0.33 1.32 0.66 2 1-2.35 3.36-3.69 4.76-7.79 5.51-8.94 0.333-8.94 0.333-12.8-2.76-3.66-4.24-4.9-6.81-4.77-12.6 0.712-3.94 2.85-7.12 5.39-10.2 4.47-2.98 8.76-2.73 14-2zm-14 6c-0.975 3.09-0.975 3.09-1 6 0.973 1.19 0.973 1.19 2.77 1.11 0.749-0.00524 1.5-0.0105 2.27-0.0159 0.809-0.00322 1.62-0.00645 2.45-0.00977 1.28-0.0126 1.28-0.0126 2.58-0.0254 0.854-0.00451 1.71-0.00902 2.59-0.0137 2.12-0.0118 4.23-0.0298 6.35-0.0488 1.37-2.96 1.37-2.96-0.188-5.5-1.85-2.56-3.03-4.03-5.81-5.5-5.4-0.687-8.32-0.108-12 4z" fill="#000001"/>
<path transform="translate(323,602)" d="m0 0c2.33 0.333 4.67 0.667 7 1 0.33-0.33 0.66-0.66 1-1 1.6-0.125 3.21-0.176 4.81-0.188 0.873-0.0142 1.75-0.0284 2.64-0.043 2.86 0.259 4.25 0.479 6.54 2.23 3.16 5.52 3.38 10.2 3.19 16.4-0.0203 1.24-0.0203 1.24-0.041 2.51-0.035 2.02-0.0888 4.04-0.146 6.06-1.32-0.33-2.64-0.66-4-1-0.0251-0.56-0.0501-1.12-0.0759-1.7-0.116-2.54-0.239-5.08-0.362-7.62-0.0393-0.881-0.0786-1.76-0.119-2.67-0.0419-0.848-0.0838-1.7-0.127-2.57-0.0367-0.78-0.0733-1.56-0.111-2.36-0.147-2.28-0.147-2.28-1.21-5.08-1.42-0.197-2.83-0.382-4.25-0.562-0.789-0.104-1.58-0.209-2.39-0.316-2.5-0.128-4.08-0.168-6.36 0.879-2.32 3.99-2.38 8.09-2.62 12.6-0.0748 1.31-0.15 2.62-0.227 3.98-0.0931 2.13-0.148 4.27-0.148 6.4-1.32-0.33-2.64-0.66-4-1-0.0289-4.15-0.0468-8.29-0.0625-12.4-0.00838-1.18-0.0168-2.37-0.0254-3.59-0.00322-1.12-0.00645-2.25-0.00977-3.41-0.00524-1.04-0.0105-2.08-0.0159-3.16 0.114-2.41 0.114-2.41 1.11-3.41z" fill="#000001"/>
<path transform="translate(753,602)" d="m0 0c3.86 2 5.6 3.4 8 7v8h-23c3.14 6.5 3.14 6.5 5.81 8.44 5.88 1.51 10 0.59 15.2-2.44-0.438 2.38-0.438 2.38-2 5-4.29 1.92-8.14 2.13-12.8 1.44-3.67-1.62-5.7-3.36-8.25-6.44-1.68-5.03-1.61-9.34 0.188-14.2 4.44-6.74 9.03-8.01 16.8-6.75zm-11.9 4.19c-2.11 2.79-2.93 4.35-3.12 7.81 0.973 1.19 0.973 1.19 2.77 1.11 0.749-0.00524 1.5-0.0105 2.27-0.0159 0.809-0.00322 1.62-0.00645 2.45-0.00977 1.28-0.0126 1.28-0.0126 2.58-0.0254 0.854-0.00451 1.71-0.00902 2.59-0.0137 2.12-0.0118 4.23-0.0298 6.35-0.0488 0.711-2.36 0.711-2.36 1-5-3.23-3.84-5.32-5.81-10.3-6.38-3.79 0.0619-3.79 0.0619-6.56 2.56z" fill="#000001"/>
<path transform="translate(1268,602)" d="m0 0c3.66 2.64 5.27 4.62 6 9 0.0945 2.72 0.14 5.41 0.125 8.12 0.0058 1.09 0.0058 1.09 0.0117 2.21-0.01 5.41-0.01 5.41-1.14 7.67-2.92 0.108-5.83 0.187-8.75 0.25-0.825 0.0335-1.65 0.067-2.5 0.102-6.11 0.0986-6.11 0.0986-9.3-2.14-2.12-3.22-2-5.44-1.45-9.21 2.49-2.74 3.94-2.99 7.67-3.29 1.36 0.0198 2.72 0.0554 4.08 0.105 0.697 0.0135 1.39 0.0271 2.11 0.041 1.71 0.0352 3.42 0.089 5.14 0.146-0.281-1.48-0.575-2.96-0.875-4.44-0.162-0.824-0.325-1.65-0.492-2.5-0.209-0.682-0.418-1.36-0.633-2.07-5.14-2.57-10.9-0.68-16 1 1-3 1-3 2.72-4.16 4.33-1.6 8.75-1.5 13.3-0.84zm-13 15c-1.11 4.55-1.11 4.55-0.0625 8.94 3.28 1.69 6.5 1.56 10.1 1.06 2.98-0.938 2.98-0.938 5-3 1.2-4.09 1.2-4.09 0-8-1.75-0.0272-3.5-0.0465-5.25-0.0625-0.975-0.0116-1.95-0.0232-2.95-0.0352-2.45 0.0857-4.46 0.391-6.8 1.1z" fill="#000001"/>
<path transform="translate(598,602)" d="m0 0h3c-0.0348 1.38-0.0348 1.38-0.0703 2.78-0.227 9.8-0.227 9.8 2.07 19.2 1.6 1.76 1.6 1.76 4 2 4.18-0.293 6.49-0.659 10-3 0.955-2.67 1.17-5.29 1.32-8.11 0.0419-0.754 0.0838-1.51 0.127-2.29 0.0393-0.777 0.0786-1.55 0.119-2.36 0.0432-0.793 0.0864-1.59 0.131-2.4 0.106-1.95 0.207-3.9 0.307-5.85h3v27c-1.98-0.33-3.96-0.66-6-1-0.66 0.33-1.32 0.66-2 1-5.44 0.614-9.62 1.02-14.1-2.31-2.37-3.39-3-5.84-3.01-9.88-0.00129-0.798-0.00258-1.6-0.00391-2.42 0.00387-0.829 0.00773-1.66 0.0117-2.51-0.00387-0.837-0.00773-1.67-0.0117-2.54 0.0101-6.21 0.0101-6.21 1.14-7.34z" fill="#000001"/>
<path transform="translate(524,602)" d="m0 0c1.32 0.33 2.64 0.66 4 1v2c0.804-0.495 1.61-0.99 2.44-1.5 4.87-2.05 9.66-2.54 14.7-0.73 2.3 1.53 2.83 2.68 3.85 5.23 0.227 2.38 0.227 2.38 0.195 4.98-0.00645 0.935-0.0129 1.87-0.0195 2.83-0.0168 0.968-0.0335 1.94-0.0508 2.93-0.00902 0.984-0.018 1.97-0.0273 2.98-0.0235 2.42-0.0564 4.85-0.0977 7.27-0.99-0.33-1.98-0.66-3-1-0.049-1.25-0.098-2.51-0.148-3.8-0.075-1.65-0.151-3.3-0.227-4.95-0.0309-0.825-0.0619-1.65-0.0938-2.5-0.0387-0.799-0.0773-1.6-0.117-2.42-0.0471-1.1-0.0471-1.1-0.0952-2.22-0.362-2.39-1.06-4.05-2.32-6.11-2.87-1.43-4.81-1.31-8-1-3.44 1.27-3.44 1.27-6 4-0.949 2.99-0.986 5.88-1 9-0.0142 1-0.0284 2-0.043 3.03-0.0171 2.66-0.00173 5.31 0.043 7.97h-4v-27z" fill="#000001"/>
<path transform="translate(415,602)" d="m0 0c2.64 0.33 5.28 0.66 8 1 0.33-0.33 0.66-0.66 1-1 4.91-0.554 8.79-0.741 13.1 1.88 2.85 3.13 3.06 4.78 3.04 8.91-0.00322 0.941-0.00645 1.88-0.00977 2.85-0.00838 0.985-0.0168 1.97-0.0254 2.98-0.00451 0.993-0.00902 1.99-0.0137 3.01-0.0118 2.46-0.0283 4.91-0.0488 7.37h-3c-0.0251-0.555-0.0501-1.11-0.0759-1.68-0.116-2.52-0.239-5.05-0.362-7.57-0.0393-0.873-0.0786-1.75-0.119-2.64-0.0419-0.844-0.0838-1.69-0.127-2.56-0.0367-0.775-0.0733-1.55-0.111-2.35-0.201-2.16-0.623-4.12-1.21-6.2-4.23-0.765-7.79-1.39-11.9-0.0625-5.54 5.54-4.64 15.7-5.06 23.1h-3v-27z" fill="#000001"/>
<path transform="translate(1023,601)" d="m0 0c1.08 3.23 0.975 4.83-0.441 7.91-0.334 0.738-0.667 1.48-1.01 2.24-0.366 0.777-0.733 1.55-1.11 2.36-0.367 0.799-0.734 1.6-1.11 2.42-1.09 2.37-2.21 4.72-3.33 7.08-0.305 0.643-0.61 1.29-0.924 1.95-5.4 11.3-5.4 11.3-8.08 14.1-2.48 0.391-2.48 0.391-5.19 0.25-0.901-0.0361-1.8-0.0722-2.73-0.109-0.687-0.0464-1.37-0.0928-2.08-0.141-0.495-1.49-0.495-1.49-1-3 0.922 0.087 0.922 0.087 1.86 0.176 5.1 0.378 5.1 0.378 9.39-2.05 1.92-8-3.8-17.1-6.91-24.4-2.34-5.51-2.34-5.51-2.34-7.71 2.52 0.984 3.77 1.62 5.19 3.97l0.952 2.38c0.348 0.851 0.696 1.7 1.05 2.58 0.348 0.889 0.696 1.78 1.05 2.7 0.364 0.897 0.727 1.79 1.1 2.72 0.895 2.21 1.78 4.43 2.65 6.66 2.34-2.13 3.68-4.06 4.97-6.94 0.342-0.748 0.684-1.5 1.04-2.27 0.347-0.777 0.695-1.55 1.05-2.35 0.695-1.54 1.39-3.09 2.1-4.63 0.306-0.683 0.611-1.37 0.926-2.07 0.914-1.74 0.914-1.74 2.91-3.74z" fill="#000001"/>
<path transform="translate(947,601)" d="m0 0c4.62 4.04 6.85 8.24 9.31 13.8 0.359 0.788 0.718 1.58 1.09 2.39 0.877 1.93 1.74 3.86 2.6 5.8 2.7-1.35 2.96-2.73 4.16-5.47 0.4-0.899 0.799-1.8 1.21-2.72 0.413-0.946 0.825-1.89 1.25-2.87 0.42-0.949 0.84-1.9 1.27-2.88 1.04-2.35 2.07-4.7 3.1-7.06 0.99 0.33 1.98 0.66 3 1-1.77 4.02-3.55 8.04-5.33 12.1-0.605 1.36-1.21 2.73-1.81 4.1-0.869 1.97-1.74 3.94-2.62 5.91-0.786 1.78-0.786 1.78-1.59 3.59-1.8 3.65-3.74 7.43-6.65 10.3-1.69 0.0721-3.38 0.0839-5.06 0.0625-0.919-0.00902-1.84-0.018-2.79-0.0273-0.71-0.0116-1.42-0.0232-2.15-0.0352-0.495-1.49-0.495-1.49-1-3 0.615 0.0464 1.23 0.0928 1.86 0.141 4.95 0.344 4.95 0.344 9.26-1.7 2.46-6.86-1.9-14-4.69-20.2-0.84-1.87-1.67-3.74-2.5-5.61-0.371-0.82-0.741-1.64-1.12-2.48-0.81-2.16-0.81-2.16-0.81-5.16z" fill="#000001"/>
<path transform="translate(669,602)" d="m0 0c2.48 0.99 2.48 0.99 5 2 2.04-0.816 2.04-0.816 4-2 3.4-0.525 6.6-0.55 10 0 3.35 2.53 4.68 4.04 6 8 0.0807 1.48 0.108 2.97 0.0977 4.45-0.00322 0.848-0.00645 1.7-0.00977 2.57-0.00838 0.881-0.0168 1.76-0.0254 2.67-0.00451 0.893-0.00902 1.79-0.0137 2.71-0.0118 2.2-0.0282 4.4-0.0488 6.61h-3c-0.0374-1.24-0.0748-2.48-0.113-3.76-0.0657-1.64-0.132-3.28-0.199-4.93-0.0226-0.817-0.0451-1.63-0.0684-2.47-0.21-4.71-0.569-8.02-3.62-11.8-3.55-1.77-7.03-1.22-10.8-0.375-2.46 1.19-2.46 1.19-2.79 3.94-0.456 3.94-0.743 7.86-0.961 11.8-0.0432 0.736-0.0864 1.47-0.131 2.23-0.105 1.8-0.206 3.6-0.307 5.39h-3v-27z" fill="#000001"/>
<path transform="translate(1303,602)" d="m0 0c3.19 1.88 3.19 1.88 5 4v2c-2.18-0.467-3.93-0.958-5.88-2.06-2.93-1.29-4.95-1.33-8.12-0.938-3.34 2.15-4.73 3.2-6 7-0.371 5-0.0988 7.98 3 12 3.73 2.48 5.59 2.38 10 2 2.76-1.41 2.76-1.41 5-3h2c-1.37 3.16-1.99 3.99-5 6-4.42 0.942-6.9 1.37-11.2-0.0625-4.37-3.01-7.27-5.26-8.33-10.5-0.302-5.12 0.0378-8.54 3.39-12.5 4.71-4.76 9.66-4.57 16.1-3.88z" fill="#000001"/>
<path transform="translate(723,602)" d="m0 0c3.12 1.88 3.12 1.88 5 4v2c-0.66-0.309-1.32-0.619-2-0.938-4.82-1.71-9.03-2.88-13.9-0.875-3.44 2.93-4.03 4.74-4.44 9.25 0.335 3.82 0.936 5.59 3.31 8.56 3.22 2.33 6.11 2.4 10 2 2.71-1.43 2.71-1.43 5-3h2c-1.37 3.16-1.99 3.99-5 6-5.65 1.41-8.95 0.901-14-2-3.16-2.75-4.65-4.28-5.48-8.37-0.306-5.45 0.649-8.96 4-13.3 4.47-4.14 9.69-4.16 15.5-3.38z" fill="#000002"/>
<path transform="translate(994,590)" d="m0 0c0.33 0.99 0.66 1.98 1 3-2.64 0.33-5.28 0.66-8 1-0.33 2.31-0.66 4.62-1 7 3.3 0.66 6.6 1.32 10 2v1h-10c0.0232 1.63 0.0464 3.25 0.0703 4.93 0.0188 2.13 0.037 4.26 0.0547 6.39 0.0168 1.07 0.0335 2.14 0.0508 3.25 0.00645 1.03 0.0129 2.06 0.0195 3.12 0.0105 0.948 0.0209 1.9 0.0317 2.87-0.227 2.45-0.227 2.45-2.23 5.45-1.93-1.93-1.4-5.42-1.56-8-0.0425-0.677-0.0849-1.35-0.129-2.05-0.296-4.99-0.397-9.95-0.309-14.9-1.65-0.33-3.3-0.66-5-1v-2c1.65-0.33 3.3-0.66 5-1 0.0412-1.26 0.0825-2.52 0.125-3.81 0.273-2.21 0.273-2.21 0.875-4.19 3.63-2.64 6.55-3.39 11-3z" fill="#000001"/>
<path transform="translate(575,591)" d="m0 0c0.33 0.66 0.66 1.32 1 2-4.46 0.495-4.46 0.495-9 1-0.33 2.64-0.66 5.28-1 8 1.11-0.0412 2.23-0.0825 3.38-0.125 3.62 0.125 3.62 0.125 5.62 2.12h-9v25h-3v-24c-1.65-0.33-3.3-0.66-5-1v-2c1.32-0.33 2.64-0.66 4-1 0.0748-0.626 0.15-1.25 0.227-1.9 0.402-2.5 0.863-4.74 1.77-7.1 3.82-2.21 6.83-2.43 11-1z" fill="#000002"/>
<path transform="translate(377,596)" d="m0 0h3c0.33 1.65 0.66 3.3 1 5 1.13 0.124 2.27 0.247 3.44 0.375 1.18 0.206 2.35 0.413 3.56 0.625l1 2h-9c0.33 6.93 0.66 13.9 1 21 2.31 0.33 4.62 0.66 7 1 0.33 0.99 0.66 1.98 1 3-1.44 0.0813-2.87 0.139-4.31 0.188-1.2 0.0522-1.2 0.0522-2.43 0.105-2.26-0.293-2.26-0.293-4.01-1.59-4.34-5.89-1.92-16-1.25-22.7-1.65-0.33-3.3-0.66-5-1v-2c1.32-0.33 2.64-0.66 4-1 0.33-1.65 0.66-3.3 1-5z" fill="#000001"/>
<path transform="translate(1319,596)" d="m0 0h3c0.33 1.65 0.66 3.3 1 5 1.13 0.124 2.27 0.247 3.44 0.375 1.18 0.206 2.35 0.413 3.56 0.625 0.33 0.66 0.66 1.32 1 2-2.64 0.33-5.28 0.66-8 1-0.0579 3.12-0.0936 6.25-0.125 9.38-0.0168 0.889-0.0335 1.78-0.0508 2.7-0.00967 1.28-0.00967 1.28-0.0195 2.58-0.0157 1.18-0.0157 1.18-0.0317 2.38 0.0471 2.21 0.0471 2.21 2.23 3.97 3.58 0.167 3.58 0.167 7 0-0.33 0.99-0.66 1.98-1 3-1.44 0.108-2.87 0.186-4.31 0.25-0.801 0.0464-1.6 0.0928-2.43 0.141-2.26-0.391-2.26-0.391-3.87-2.12-1.57-2.57-1.81-4.05-1.9-7.04-0.0354-0.889-0.0709-1.78-0.107-2.7-0.0226-0.92-0.0451-1.84-0.0684-2.79-0.0342-0.936-0.0683-1.87-0.104-2.84-0.0823-2.3-0.152-4.61-0.209-6.91-1.32-0.33-2.64-0.66-4-1v-2c1.32-0.33 2.64-0.66 4-1 0.33-1.65 0.66-3.3 1-5z" fill="#000001"/>
<path transform="translate(511,592)" d="m0 0v37c-1.32-0.33-2.64-0.66-4-1v-35c3-1 3-1 4-1z" fill="#000002"/>
<path transform="translate(271,592)" d="m0 0v37c-1.32-0.33-2.64-0.66-4-1v-35c3-1 3-1 4-1z" fill="#000002"/>
<path transform="translate(936,590)" d="m0 0c0.66 0.33 1.32 0.66 2 1 1.15 3.96 1.13 7.84 1.13 11.9 9.57e-4 0.652 0.00191 1.3 0.0029 1.97 6.77e-4 1.37-0.00115 2.74-0.00534 4.11-0.00537 2.1-3.09e-5 4.19 0.00635 6.29-6.61e-4 1.33-0.00194 2.67-0.00391 4-0.00113 1.21-0.00226 2.42-0.00342 3.66-0.129 3.02-0.129 3.02-1.13 6.02-0.99-0.33-1.98-0.66-3-1-0.0246-5.25-0.0428-10.5-0.0549-15.8-0.00504-1.79-0.0119-3.58-0.0205-5.36-0.0121-2.56-0.0178-5.13-0.0222-7.69-0.00516-0.804-0.0103-1.61-0.0156-2.44-1.96e-4 -1.92 0.0513-3.84 0.113-5.75l1-1z" fill="#000001"/>
<path transform="translate(1140,592)" d="m0 0c1.32 0.33 2.64 0.66 4 1v36c-1.32-0.33-2.64-0.66-4-1v-36z" fill="#000002"/>
<path transform="translate(582,590)" d="m0 0c0.99 0.33 1.98 0.66 3 1v38h-3v-39z" fill="#000001"/>
<path transform="translate(1033,602)" d="m0 0h3v27c-1.32-0.33-2.64-0.66-4-1-0.0292-3.21-0.0469-6.42-0.0625-9.62-0.00838-0.904-0.0168-1.81-0.0254-2.74-0.017-4.67 0.12-9.05 1.09-13.6z" fill="#000002"/>
<path transform="translate(360,602)" d="m0 0c1.32 0.33 2.64 0.66 4 1-0.33 8.58-0.66 17.2-1 26h-3v-27z" fill="#000002"/>
<path transform="translate(399,602)" d="m0 0c1.32 0.33 2.64 0.66 4 1-0.33 8.58-0.66 17.2-1 26-0.99-0.33-1.98-0.66-3-1v-26z" fill="#000002"/>
<path transform="translate(771,624)" d="m0 0c0.99 0.33 1.98 0.66 3 1-0.66 3.63-1.32 7.26-2 11-0.99-0.33-1.98-0.66-3-1 0.165-0.536 0.33-1.07 0.5-1.62 0.609-2.49 0.609-2.49 0.5-5.56 0-2.81 0-2.81 1-3.81z" fill="#000002"/>
<path transform="translate(1032,591)" d="m0 0h4v3h-4v-3z" fill="#000002"/>
<path transform="translate(360,591)" d="m0 0c1.32 0.33 2.64 0.66 4 1-0.33 0.99-0.66 1.98-1 3-0.99-0.33-1.98-0.66-3-1v-3z" fill="#000002"/>
<path transform="translate(399,591)" d="m0 0c1.32 0.33 2.64 0.66 4 1v2h-4v-3z" fill="#000002"/>
</svg>