<svg xmlns="http://www.w3.org/2000/svg" version="1.0" width="116.000000pt" height="124.000000pt" viewBox="0 0 116.000000 124.000000" preserveAspectRatio="xMidYMid meet">

<g transform="translate(0.000000,124.000000) scale(0.100000,-0.100000)" fill="#007ECC" stroke="none">
<path d="M544 1131 c-49 -12 -336 -181 -374 -221 -52 -53 -60 -92 -60 -295 0 -195 7 -235 52 -289 34 -42 344 -221 399 -231 67 -12 134 17 385 171 55 34 76 54 97 92 27 49 27 51 27 253 -1 281 -2 283 -215 407 -200 116 -240 130 -311 113z m163 -298 c128 -72 128 -71 128 -218 0 -118 -1 -125 -25 -150 -37 -40 -181 -115 -220 -115 -38 0 -201 89 -225 123 -11 16 -15 51 -15 143 0 145 -1 144 120 214 109 63 130 63 237 3z"/>
</g>
</svg>